<svg width="50" height="50" viewBox="0 0 50 50" fill="none" xmlns="http://www.w3.org/2000/svg">
<path fill-rule="evenodd" clip-rule="evenodd" d="M6.94203 45.0016L2.92969 0H47.019L43.0023 44.9942L24.9477 50L6.94203 45.0016Z" fill="#0071BC"/>
<path fill-rule="evenodd" clip-rule="evenodd" d="M25.0114 46.1714L39.5823 42.1629L42.9963 3.74768H25.0114V46.1714Z" fill="#29ABE2"/>
<path fill-rule="evenodd" clip-rule="evenodd" d="M12.1139 20.2811L12.5973 25.7922L25.0114 20.2811V14.761L12.1139 20.2811Z" fill="#B3B3B3"/>
<path fill-rule="evenodd" clip-rule="evenodd" d="M38.7604 8.86853L25.0114 14.761V20.281L38.2863 14.3797L38.7604 8.86853Z" fill="#E6E6E6"/>
<path fill-rule="evenodd" clip-rule="evenodd" d="M25.0114 34.701L24.9687 34.7074L18.8122 33.054L18.41 28.6581H12.8692L13.6424 37.3183L24.9675 40.4541L25.0114 40.4437V34.701Z" fill="#E6E6E6"/>
<path fill-rule="evenodd" clip-rule="evenodd" d="M25.0114 20.281V25.7922H31.7517L31.1391 32.9976L25.0114 34.7056V40.4479L36.2989 37.3121L37.7852 20.281H25.0114Z" fill="white"/>
<path fill-rule="evenodd" clip-rule="evenodd" d="M25.0114 20.281H12.1139L12.5973 25.7922H25.0114V20.281Z" fill="#E6E6E6"/>
<path fill-rule="evenodd" clip-rule="evenodd" d="M25.0114 14.3797V8.86853H24.9554H11.134L11.6231 14.3797H25.0114Z" fill="#E6E6E6"/>
<path fill-rule="evenodd" clip-rule="evenodd" d="M25.0114 8.86853V14.3106V14.3797H38.2863L38.7604 8.86853H25.0114Z" fill="white"/>
</svg>
