<svg width="50" height="50" viewBox="0 0 50 50" fill="none" xmlns="http://www.w3.org/2000/svg">
<path d="M16.7318 50C21.3318 50 25.0651 46.2667 25.0651 41.6667V33.3334H16.7318C12.1318 33.3334 8.39844 37.0667 8.39844 41.6667C8.39844 46.2667 12.1318 50 16.7318 50Z" fill="#0ACF83"/>
<path d="M8.39844 25C8.39844 20.4 12.1318 16.6666 16.7318 16.6666H25.0651V33.3333H16.7318C12.1318 33.3333 8.39844 29.6 8.39844 25Z" fill="#A259FF"/>
<path d="M8.39844 8.33333C8.39844 3.73333 12.1318 0 16.7318 0H25.0651V16.6667H16.7318C12.1318 16.6667 8.39844 12.9333 8.39844 8.33333Z" fill="#F24E1E"/>
<path d="M25.0651 0H33.3984C37.9984 0 41.7318 3.73333 41.7318 8.33333C41.7318 12.9333 37.9984 16.6667 33.3984 16.6667H25.0651V0Z" fill="#FF7262"/>
<path d="M41.7318 25C41.7318 29.6 37.9984 33.3333 33.3984 33.3333C28.7984 33.3333 25.0651 29.6 25.0651 25C25.0651 20.4 28.7984 16.6666 33.3984 16.6666C37.9984 16.6666 41.7318 20.4 41.7318 25Z" fill="#1ABCFE"/>
</svg>
