<svg width="50" height="50" viewBox="0 0 50 50" fill="none" xmlns="http://www.w3.org/2000/svg">
<path fill-rule="evenodd" clip-rule="evenodd" d="M6.94191 45.0018L2.92969 0H47.0171L43.0007 44.9948L24.9464 50L6.94191 45.0018Z" fill="#E44D26"/>
<path fill-rule="evenodd" clip-rule="evenodd" d="M24.9734 46.1742L39.5621 42.1297L42.9945 3.67957H24.9734V46.1742Z" fill="#F16529"/>
<path d="M17.67 20.3702H24.9734V25.8894H12.6223L11.1337 9.19897H24.9734V14.7183H17.1656L17.67 20.3702Z" fill="#EBEBEB"/>
<path d="M24.9492 34.7108L24.9734 34.7043V40.4467L24.948 40.4538L13.6422 37.3152L12.8689 28.6491H18.4094L18.8024 33.051L24.9492 34.7108Z" fill="#EBEBEB"/>
<path d="M24.9543 9.19897H38.7802L38.286 14.7183H24.9543V9.19897Z" fill="white"/>
<path d="M24.9543 25.8894V20.3702H37.7838L37.6492 21.8522L36.2692 37.3152L24.9543 40.4511V34.709L31.1101 33.0475L31.7507 25.8894H24.9543Z" fill="white"/>
</svg>
