<svg width="50" height="50" viewBox="0 0 50 50" fill="none" xmlns="http://www.w3.org/2000/svg">
<g clip-path="url(#clip0_78_301)">
<path d="M0 18.0952C0 11.7613 0 8.59435 1.23266 6.17511C2.31695 4.04708 4.04708 2.31695 6.17511 1.23266C8.59435 0 11.7613 0 18.0952 0H31.9048C38.2387 0 41.4057 0 43.8249 1.23266C45.9529 2.31695 47.6831 4.04708 48.7673 6.17511C50 8.59435 50 11.7613 50 18.0952V31.9048C50 38.2387 50 41.4057 48.7673 43.8249C47.6831 45.9529 45.9529 47.6831 43.8249 48.7673C41.4057 50 38.2387 50 31.9048 50H18.0952C11.7613 50 8.59435 50 6.17511 48.7673C4.04708 47.6831 2.31695 45.9529 1.23266 43.8249C0 41.4057 0 38.2387 0 31.9048V18.0952Z" fill="#330000"/>
<path d="M24.2293 31.4219H16.4812L14.9048 36.4446C14.861 36.6312 14.6892 36.7633 14.5022 36.7542H10.5779C10.3541 36.7542 10.2758 36.628 10.3431 36.3758L17.0514 16.5604C17.1185 16.354 17.1856 16.1189 17.2527 15.8551C17.3404 15.3961 17.3853 14.9296 17.3868 14.4619C17.3676 14.3237 17.4891 14.2017 17.6216 14.221H22.9547C23.1109 14.221 23.2004 14.2784 23.223 14.3931L30.8371 36.4101C30.9041 36.6397 30.837 36.7543 30.6358 36.7542H26.2753C26.1224 36.7716 25.9763 36.6667 25.9399 36.5134L24.2293 31.4219ZM17.6887 27.0873H22.9883C22.1176 24.112 21.1349 21.1758 20.3385 18.1773C19.4793 21.1808 18.5418 24.1723 17.6887 27.0873Z" fill="#FF9A00"/>
<path d="M35.3648 17.8675C35.0226 17.8816 34.6815 17.8215 34.3636 17.6911C34.0457 17.5607 33.7582 17.3629 33.52 17.1107C33.2824 16.8476 33.0978 16.5389 32.9769 16.2024C32.856 15.8658 32.8012 15.5081 32.8155 15.1498C32.8033 14.795 32.8643 14.4416 32.9943 14.1126C33.1243 13.7836 33.3206 13.4864 33.5702 13.2405C33.8174 12.9971 34.1093 12.8064 34.4288 12.6795C34.7483 12.5525 35.0892 12.4918 35.4318 12.5009C36.2368 12.5009 36.8686 12.7474 37.3269 13.2405C37.5583 13.4968 37.7381 13.7973 37.8561 14.1249C37.9741 14.4525 38.0279 14.8008 38.0145 15.1498C38.0285 15.5095 37.9719 15.8685 37.848 16.2053C37.7242 16.5422 37.5355 16.8501 37.2934 17.1107C37.0403 17.3666 36.7382 17.5659 36.4063 17.6962C36.0744 17.8265 35.7198 17.8848 35.3648 17.8675ZM33.0503 36.41V19.966C33.0503 19.7596 33.1394 19.6564 33.3187 19.6564H37.4443C37.6231 19.6564 37.7125 19.7596 37.7127 19.966V36.41C37.7127 36.6396 37.6232 36.7542 37.4443 36.7541H33.3522C33.151 36.7541 33.0504 36.6394 33.0503 36.41Z" fill="#FF9A00"/>
</g>
<defs>
<clipPath id="clip0_78_301">
<rect width="50" height="50" fill="white"/>
</clipPath>
</defs>
</svg>
