<svg width="50" height="50" viewBox="0 0 50 50" fill="none" xmlns="http://www.w3.org/2000/svg">
<g clip-path="url(#clip0_78_281)">
<path d="M43.0374 18.6262C44.817 18.2473 48.8474 15.215 49.5475 13.6097C43.7521 17.5535 40.0673 16.4476 38.2095 15.8901C38.1304 15.8663 38.0546 15.8436 37.9821 15.8223C37.5911 15.7103 36.6863 15.3041 35.8432 14.7973C35.7847 14.7622 35.7272 14.7277 35.6706 14.6937C33.9125 13.6382 33.0008 13.0908 31.5883 11.0372C30.7873 9.87356 29.9868 8.02408 29.7241 6.96419C29.2905 5.2119 29.4107 2.51604 30.2347 0.195312C27.4995 2.63617 27.0779 7.35134 27.9948 10.4688C28.1111 10.8636 28.7609 12.4143 29.1125 12.9828C31.4764 16.7855 35.9901 20.1273 43.0374 18.6262Z" fill="#21609B"/>
<path d="M38.0092 29.2284C42.512 29.2595 47.2151 27.155 50 24.2003C47.5635 30.3855 40.5085 34.3613 31.047 33.0966C23.1255 32.0368 15.579 24.0649 14.8014 16.0773C14.233 10.264 16.2594 6.79436 19.598 2.58593C18.4376 4.78707 18.004 6.48475 17.8959 7.56757C16.6274 20.1426 27.9411 29.1629 38.0092 29.2284Z" fill="#21609B"/>
<path d="M48.8396 36.9649L48.6157 37.5448C44.8016 44.9711 38.0441 49.5279 28.4052 49.7289C23.8992 49.8217 19.6056 48.6657 16.801 47.4081C10.748 44.6888 5.65719 39.6454 2.87669 34.257C-1.11168 26.5325 -1.83083 15.7873 6.46207 7.76139C6.52596 7.76139 6.27451 8.19646 6.02305 8.63153C5.77159 9.06659 5.52013 9.50166 5.58402 9.50166L5.35577 10.2443C-0.620234 28.9537 17.791 44.9869 35.6885 43.1533C39.9897 42.7126 45.4748 40.3569 48.8396 36.9649Z" fill="#21609B"/>
</g>
<defs>
<clipPath id="clip0_78_281">
<rect width="50" height="50" fill="white"/>
</clipPath>
</defs>
</svg>
