<svg width="56" height="56" viewBox="0 0 56 56" fill="none" xmlns="http://www.w3.org/2000/svg">
<path d="M27.0246 1.31824C27.2594 0.278688 28.7406 0.278687 28.9754 1.31824L32.2193 15.6791C32.3715 16.3528 33.1447 16.6731 33.7287 16.3043L46.1771 8.44342C47.0782 7.87438 48.1256 8.92176 47.5566 9.82288L39.6957 22.2713C39.3269 22.8553 39.6472 23.6285 40.3209 23.7807L54.6818 27.0246C55.7213 27.2594 55.7213 28.7406 54.6818 28.9754L40.3209 32.2193C39.6472 32.3715 39.3269 33.1447 39.6957 33.7287L47.5566 46.1771C48.1256 47.0782 47.0782 48.1256 46.1771 47.5566L33.7287 39.6957C33.1447 39.3269 32.3715 39.6472 32.2193 40.3209L28.9754 54.6818C28.7406 55.7213 27.2594 55.7213 27.0246 54.6818L23.7807 40.3209C23.6285 39.6472 22.8553 39.3269 22.2713 39.6957L9.82288 47.5566C8.92176 48.1256 7.87438 47.0782 8.44342 46.1771L16.3043 33.7287C16.6731 33.1447 16.3528 32.3715 15.6791 32.2193L1.31824 28.9754C0.278688 28.7406 0.278687 27.2594 1.31824 27.0246L15.6791 23.7807C16.3528 23.6285 16.6731 22.8553 16.3043 22.2713L8.44342 9.82288C7.87438 8.92176 8.92176 7.87438 9.82288 8.44342L22.2713 16.3043C22.8553 16.6731 23.6285 16.3528 23.7807 15.6791L27.0246 1.31824Z" fill="#51FF00"/>
</svg>
