<svg width="50" height="50" viewBox="0 0 50 50" fill="none" xmlns="http://www.w3.org/2000/svg">
<g clip-path="url(#clip0_78_41)">
<path d="M0 18.0952C0 11.7613 0 8.59435 1.23266 6.17511C2.31695 4.04708 4.04708 2.31695 6.17511 1.23266C8.59435 0 11.7613 0 18.0952 0H31.9048C38.2387 0 41.4057 0 43.8249 1.23266C45.9529 2.31695 47.6831 4.04708 48.7673 6.17511C50 8.59435 50 11.7613 50 18.0952V31.9048C50 38.2387 50 41.4057 48.7673 43.8249C47.6831 45.9529 45.9529 47.6831 43.8249 48.7673C41.4057 50 38.2387 50 31.9048 50H18.0952C11.7613 50 8.59435 50 6.17511 48.7673C4.04708 47.6831 2.31695 45.9529 1.23266 43.8249C0 41.4057 0 38.2387 0 31.9048V18.0952Z" fill="#001E36"/>
<path d="M10.7143 36.6362V14.649C10.7143 14.4994 10.7768 14.414 10.9226 14.414C13.0755 14.414 15.2275 14.2858 17.381 14.2858C20.8753 14.2858 24.6589 15.4806 25.9851 19.1362C26.2976 20.0336 26.4643 20.9524 26.4643 21.914C26.4643 23.7516 26.0476 25.2687 25.2143 26.4653C22.8865 29.8078 18.8518 29.7559 15.2351 29.7559V36.6148C15.2634 36.8179 15.0904 36.914 14.9226 36.914H10.9643C10.7976 36.914 10.7143 36.8285 10.7143 36.6362ZM15.256 18.5379V25.7174C16.69 25.8225 18.1906 25.8338 19.5685 25.3755C21.0896 24.9367 21.9226 23.62 21.9226 22.0422C21.9649 20.6977 21.2323 19.4077 19.9851 18.9225C18.6239 18.3565 16.7254 18.3226 15.256 18.5379Z" fill="#31A8FF"/>
<path d="M39.4583 24.2989C38.828 23.9667 38.1566 23.7237 37.4626 23.5765C36.5707 23.3666 33.0532 22.6317 33.0519 24.4709C33.0831 25.4978 34.713 26.0009 35.4333 26.2942C37.9616 27.1622 40.8227 28.7138 40.7664 31.8329C40.8437 35.7158 37.0817 37.268 33.8568 37.2684C32.178 37.2858 30.4291 37.0257 28.8926 36.3051C28.746 36.2274 28.6516 36.0614 28.6579 35.8923V32.1769C28.6413 32.0279 28.8012 31.8977 28.9262 32.0049C30.4316 32.9153 32.216 33.3573 33.9574 33.381C34.7262 33.381 36.2499 33.3064 36.2383 32.1769C36.2383 31.0929 34.4156 30.5946 33.6891 30.3192C32.6359 29.9432 31.6373 29.4225 30.7207 28.7711C29.4396 27.8574 28.636 26.3923 28.6579 24.7805C28.6504 21.1245 32.1133 19.4835 35.2321 19.4827C36.69 19.4707 38.2556 19.5786 39.6128 20.1707C39.808 20.2282 39.8485 20.4337 39.8476 20.6179V24.0925C39.86 24.3082 39.6205 24.3816 39.4583 24.2989Z" fill="#31A8FF"/>
</g>
<defs>
<clipPath id="clip0_78_41">
<rect width="50" height="50" fill="white"/>
</clipPath>
</defs>
</svg>
