<svg width="50" height="50" viewBox="0 0 50 50" fill="none" xmlns="http://www.w3.org/2000/svg">
<g clip-path="url(#clip0_78_23)">
<mask id="mask0_78_23" style="mask-type:alpha" maskUnits="userSpaceOnUse" x="0" y="0" width="50" height="50">
<path d="M35.3179 49.3369C36.1023 49.6426 36.9969 49.6229 37.7887 49.242L48.0428 44.3079C49.1202 43.7895 49.8054 42.6988 49.8054 41.5025V8.04629C49.8054 6.84995 49.1202 5.75946 48.0428 5.24098L37.7887 0.306742C36.7496 -0.193246 35.5335 -0.0707803 34.6216 0.592223C34.4912 0.686935 34.3671 0.792682 34.2508 0.909219L14.6204 18.8183L6.06988 12.3277C5.27391 11.7235 4.16056 11.773 3.4213 12.4455L0.678863 14.9401C-0.225395 15.7627 -0.226432 17.1853 0.676624 18.0092L8.09195 24.7743L0.676624 31.5395C-0.226432 32.3634 -0.225395 33.786 0.678863 34.6085L3.4213 37.1031C4.16056 37.7757 5.27391 37.8251 6.06988 37.221L14.6204 30.7303L34.2508 48.6395C34.5613 48.9502 34.9259 49.1842 35.3179 49.3369ZM37.3617 13.4679L22.4667 24.7743L37.3617 36.0807V13.4679Z" fill="white"/>
</mask>
<g mask="url(#mask0_78_23)">
<path d="M48.0732 5.24862L37.8111 0.307588C36.6234 -0.264335 35.2037 -0.0230851 34.2715 0.909133L0.677035 31.5394C-0.22657 32.3634 -0.225532 33.7859 0.679276 34.6085L3.42338 37.103C4.1631 37.7756 5.27713 37.825 6.07357 37.2209L46.529 6.53045C47.8862 5.50084 49.8357 6.46886 49.8357 8.17244V8.05329C49.8357 6.85748 49.1506 5.76738 48.0732 5.24862Z" fill="#0065A9"/>
<path d="M48.0732 44.3L37.8111 49.241C36.6234 49.8128 35.2037 49.5716 34.2715 48.6395L0.677035 18.0092C-0.22657 17.1853 -0.225532 15.7627 0.679276 14.9401L3.42338 12.4455C4.1631 11.773 5.27713 11.7235 6.07357 12.3277L46.529 43.0181C47.8862 44.0476 49.8357 43.0797 49.8357 41.376V41.4953C49.8357 42.691 49.1506 43.7811 48.0732 44.3Z" fill="#007ACC"/>
<path d="M37.779 49.245C36.5908 49.8164 35.1712 49.575 34.2389 48.6427C35.3875 49.7913 37.3517 48.9777 37.3517 47.3532V2.20177C37.3517 0.57725 35.3875 -0.236319 34.2389 0.912394C35.1712 -0.0199108 36.5908 -0.261501 37.779 0.309917L48.0393 5.24416C49.1175 5.76264 49.8031 6.85313 49.8031 8.04947V41.5057C49.8031 42.702 49.1175 43.7925 48.0393 44.311L37.779 49.245Z" fill="#1F9CF0"/>
<path d="M35.3179 49.3368C36.1024 49.6423 36.9969 49.6228 37.7886 49.2419L48.0427 44.3077C49.1203 43.7892 49.8055 42.6987 49.8055 41.5024V8.04616C49.8055 6.84982 49.1203 5.75934 48.0429 5.24085L37.7886 0.306621C36.7497 -0.193369 35.5335 -0.0709026 34.6214 0.5921C34.4913 0.686812 34.3672 0.792559 34.2506 0.909096L14.6204 18.8182L6.06987 12.3276C5.27392 11.7234 4.16055 11.7729 3.42129 12.4454L0.678863 14.94C-0.225395 15.7626 -0.226432 17.1852 0.676624 18.0091L8.09196 24.7742L0.676624 31.5394C-0.226432 32.3633 -0.225395 33.7859 0.678863 34.6084L3.42129 37.103C4.16055 37.7756 5.27392 37.825 6.06987 37.2209L14.6204 30.7302L34.2506 48.6394C34.5611 48.9501 34.9259 49.1841 35.3179 49.3368ZM37.3617 13.4678L22.4668 24.7742L37.3617 36.0806V13.4678Z" fill="url(#paint0_linear_78_23)" fill-opacity="0.25"/>
</g>
</g>
<defs>
<linearGradient id="paint0_linear_78_23" x1="24.9028" y1="-0.000122264" x2="24.9028" y2="49.5485" gradientUnits="userSpaceOnUse">
<stop stop-color="white"/>
<stop offset="1" stop-color="white" stop-opacity="0"/>
</linearGradient>
<clipPath id="clip0_78_23">
<rect width="50" height="49.6094" fill="white"/>
</clipPath>
</defs>
</svg>
