<svg width="39" height="39" viewBox="0 0 39 39" fill="none" xmlns="http://www.w3.org/2000/svg">
<path fill-rule="evenodd" clip-rule="evenodd" d="M19.5002 0.914062C8.98431 0.914062 0.457031 9.43976 0.457031 19.9572C0.457031 28.3709 5.91347 35.5091 13.4799 38.0272C14.4316 38.2034 14.781 37.6141 14.781 37.1111C14.781 36.657 14.7633 35.1569 14.7551 33.5656C9.45733 34.7176 8.33943 31.3188 8.33943 31.3188C7.47317 29.1177 6.22503 28.5324 6.22503 28.5324C4.49725 27.3505 6.35527 27.3748 6.35527 27.3748C8.26753 27.5091 9.27443 29.3372 9.27443 29.3372C10.9729 32.2484 13.7293 31.4068 14.816 30.9202C14.9869 29.6894 15.4804 28.8493 16.025 28.3738C11.7953 27.8922 7.34892 26.2594 7.34892 18.9626C7.34892 16.8835 8.09282 15.1847 9.31101 13.8511C9.11328 13.3715 8.46146 11.4346 9.49548 8.81159C9.49548 8.81159 11.0946 8.29979 14.7337 10.7636C16.2527 10.3417 17.8818 10.1301 19.5002 10.1228C21.1185 10.1301 22.7489 10.3417 24.2707 10.7636C27.9054 8.29979 29.5023 8.81159 29.5023 8.81159C30.5389 11.4346 29.8867 13.3715 29.689 13.8511C30.91 15.1847 31.6489 16.8835 31.6489 18.9626C31.6489 26.2767 27.194 27.8872 22.9535 28.3586C23.6366 28.9496 24.2452 30.1085 24.2452 31.8852C24.2452 34.4332 24.2231 36.4839 24.2231 37.1111C24.2231 37.6178 24.5659 38.2116 25.5312 38.0246C33.0935 35.5038 38.543 28.3681 38.543 19.9572C38.543 9.43976 30.017 0.914062 19.5002 0.914062ZM7.5893 28.0414C7.54736 28.136 7.39852 28.1644 7.26292 28.0994C7.1248 28.0373 7.04722 27.9083 7.092 27.8134C7.133 27.716 7.28215 27.6888 7.41996 27.7541C7.5584 27.8162 7.63723 27.9465 7.5893 28.0414ZM8.52601 28.8772C8.43519 28.9614 8.25765 28.9223 8.13719 28.7892C8.01263 28.6565 7.98929 28.4789 8.08137 28.3935C8.17503 28.3093 8.34721 28.3487 8.47209 28.4815C8.59665 28.6158 8.62093 28.7921 8.52601 28.8772ZM9.16863 29.9466C9.05195 30.0277 8.86117 29.9517 8.74323 29.7823C8.62655 29.613 8.62655 29.4099 8.74575 29.3285C8.86401 29.2472 9.05195 29.3203 9.17147 29.4884C9.28783 29.6606 9.28783 29.8637 9.16863 29.9466ZM10.2554 31.1851C10.1511 31.3002 9.92874 31.2693 9.76602 31.1123C9.59952 30.9587 9.55316 30.7408 9.65786 30.6257C9.7635 30.5103 9.98708 30.5428 10.1511 30.6985C10.3163 30.8518 10.3668 31.0713 10.2554 31.1851ZM11.66 31.6032C11.614 31.7524 11.3999 31.8202 11.1842 31.7568C10.9688 31.6915 10.8278 31.5168 10.8713 31.3661C10.9161 31.216 11.1312 31.1453 11.3485 31.2131C11.5635 31.2781 11.7048 31.4515 11.66 31.6032ZM13.2585 31.7806C13.2639 31.9376 13.081 32.0679 12.8546 32.0707C12.6269 32.0757 12.4427 31.9487 12.4402 31.7941C12.4402 31.6355 12.619 31.5065 12.8467 31.5028C13.0731 31.4983 13.2585 31.6245 13.2585 31.7806ZM14.8288 31.7204C14.856 31.8736 14.6986 32.031 14.4738 32.0729C14.2527 32.1133 14.048 32.0187 14.02 31.8667C13.9925 31.7097 14.1527 31.5523 14.3735 31.5116C14.5986 31.4725 14.8001 31.5646 14.8288 31.7204Z" fill="white"/>
</svg>
