<svg width="182" height="140" viewBox="0 0 182 140" fill="none" xmlns="http://www.w3.org/2000/svg">
<path d="M113 56.5L77.54 61.3022L107.405 81.0144L73.3728 69.9556L91.7272 100.673L65.8637 75.9439L69.0724 111.583L56.5 78.0811L43.9276 111.583L47.1363 75.9439L21.2728 100.673L39.6272 69.9556L5.59526 81.0144L35.46 61.3022L-2.46969e-06 56.5L35.46 51.6978L5.59526 31.9856L39.6272 43.0444L21.2728 12.3265L47.1363 37.0561L43.9276 1.41657L56.5 34.9189L69.0724 1.41657L65.8637 37.0561L91.7272 12.3265L73.3728 43.0444L107.405 31.9856L77.54 51.6978L113 56.5Z" fill="url(#paint0_linear_219_52)"/>
<path d="M155 86L158.527 103.309L172.355 92.3168L163.931 107.843L181.59 108.311L165.156 114.791L178.383 126.5L161.629 120.9L164.235 138.372L155 123.313L145.765 138.372L148.371 120.9L131.617 126.5L144.844 114.791L128.41 108.311L146.069 107.843L137.645 92.3168L151.473 103.309L155 86Z" fill="url(#paint1_linear_219_52)"/>
<defs>
<linearGradient id="paint0_linear_219_52" x1="113" y1="56.5" x2="-2.46969e-06" y2="56.5" gradientUnits="userSpaceOnUse">
<stop stop-color="#D9D9D9"/>
<stop offset="1" stop-color="#FFE100"/>
</linearGradient>
<linearGradient id="paint1_linear_219_52" x1="155" y1="86" x2="155" y2="140" gradientUnits="userSpaceOnUse">
<stop stop-color="#D9D9D9"/>
<stop offset="1" stop-color="#A259FF"/>
</linearGradient>
</defs>
</svg>
