<svg width="113" height="111" viewBox="0 0 113 111" fill="none" xmlns="http://www.w3.org/2000/svg">
<path d="M113 55.5L77.54 60.3022L107.405 80.0144L73.3728 68.9556L91.7272 99.6735L65.8637 74.9439L69.0724 110.583L56.5 77.0811L43.9276 110.583L47.1363 74.9439L21.2728 99.6735L39.6272 68.9556L5.59526 80.0144L35.46 60.3022L-2.46969e-06 55.5L35.46 50.6978L5.59526 30.9856L39.6272 42.0444L21.2728 11.3265L47.1363 36.0561L43.9276 0.41657L56.5 33.9189L69.0724 0.416571L65.8637 36.0561L91.7272 11.3265L73.3728 42.0444L107.405 30.9856L77.54 50.6978L113 55.5Z" fill="url(#paint0_linear_97_153)"/>
<defs>
<linearGradient id="paint0_linear_97_153" x1="113" y1="55.5" x2="-2.46969e-06" y2="55.5" gradientUnits="userSpaceOnUse">
<stop stop-color="#D9D9D9"/>
<stop offset="1" stop-color="#FFE100"/>
</linearGradient>
</defs>
</svg>
